<?xml version="1.0" encoding="utf-8"?>
<svg xmlns="http://www.w3.org/2000/svg" xmlns:xlink="http://www.w3.org/1999/xlink" width="600" height="400" viewBox="0 0 2400 1600">
<defs>
  <clipPath id="clip730">
    <rect x="0" y="0" width="2400" height="1600"/>
  </clipPath>
</defs>
<path clip-path="url(#clip730)" d="M0 1600 L2400 1600 L2400 0 L0 0  Z" fill="#ffffff" fill-rule="evenodd" fill-opacity="1"/>
<defs>
  <clipPath id="clip731">
    <rect x="480" y="0" width="1681" height="1600"/>
  </clipPath>
</defs>
<path clip-path="url(#clip730)" d="M272.297 1423.18 L2352.76 1423.18 L2352.76 123.472 L272.297 123.472  Z" fill="#ffffff" fill-rule="evenodd" fill-opacity="1"/>
<defs>
  <clipPath id="clip732">
    <rect x="272" y="123" width="2081" height="1301"/>
  </clipPath>
</defs>
<polyline clip-path="url(#clip732)" style="stroke:#000000; stroke-linecap:round; stroke-linejoin:round; stroke-width:2; stroke-opacity:0.1; fill:none" points="1140.24,1423.18 1140.24,123.472 "/>
<polyline clip-path="url(#clip732)" style="stroke:#000000; stroke-linecap:round; stroke-linejoin:round; stroke-width:2; stroke-opacity:0.1; fill:none" points="1290.01,1423.18 1290.01,123.472 "/>
<polyline clip-path="url(#clip732)" style="stroke:#000000; stroke-linecap:round; stroke-linejoin:round; stroke-width:2; stroke-opacity:0.1; fill:none" points="1439.77,1423.18 1439.77,123.472 "/>
<polyline clip-path="url(#clip732)" style="stroke:#000000; stroke-linecap:round; stroke-linejoin:round; stroke-width:2; stroke-opacity:0.1; fill:none" points="272.297,1093.57 2352.76,1093.57 "/>
<polyline clip-path="url(#clip732)" style="stroke:#000000; stroke-linecap:round; stroke-linejoin:round; stroke-width:2; stroke-opacity:0.1; fill:none" points="272.297,1005.84 2352.76,1005.84 "/>
<polyline clip-path="url(#clip732)" style="stroke:#000000; stroke-linecap:round; stroke-linejoin:round; stroke-width:2; stroke-opacity:0.1; fill:none" points="272.297,794.04 2352.76,794.04 "/>
<polyline clip-path="url(#clip732)" style="stroke:#000000; stroke-linecap:round; stroke-linejoin:round; stroke-width:2; stroke-opacity:0.1; fill:none" points="272.297,582.241 2352.76,582.241 "/>
<polyline clip-path="url(#clip730)" style="stroke:#000000; stroke-linecap:round; stroke-linejoin:round; stroke-width:4; stroke-opacity:1; fill:none" points="272.297,1423.18 2352.76,1423.18 "/>
<polyline clip-path="url(#clip730)" style="stroke:#000000; stroke-linecap:round; stroke-linejoin:round; stroke-width:4; stroke-opacity:1; fill:none" points="1140.24,1423.18 1140.24,1404.28 "/>
<polyline clip-path="url(#clip730)" style="stroke:#000000; stroke-linecap:round; stroke-linejoin:round; stroke-width:4; stroke-opacity:1; fill:none" points="1290.01,1423.18 1290.01,1404.28 "/>
<polyline clip-path="url(#clip730)" style="stroke:#000000; stroke-linecap:round; stroke-linejoin:round; stroke-width:4; stroke-opacity:1; fill:none" points="1439.77,1423.18 1439.77,1404.28 "/>
<path clip-path="url(#clip730)" d="M1140.24 1454.1 Q1136.63 1454.1 1134.8 1457.66 Q1133 1461.2 1133 1468.33 Q1133 1475.44 1134.8 1479.01 Q1136.63 1482.55 1140.24 1482.55 Q1143.88 1482.55 1145.68 1479.01 Q1147.51 1475.44 1147.51 1468.33 Q1147.51 1461.2 1145.68 1457.66 Q1143.88 1454.1 1140.24 1454.1 M1140.24 1450.39 Q1146.05 1450.39 1149.11 1455 Q1152.19 1459.58 1152.19 1468.33 Q1152.19 1477.06 1149.11 1481.67 Q1146.05 1486.25 1140.24 1486.25 Q1134.43 1486.25 1131.35 1481.67 Q1128.3 1477.06 1128.3 1468.33 Q1128.3 1459.58 1131.35 1455 Q1134.43 1450.39 1140.24 1450.39 Z" fill="#000000" fill-rule="nonzero" fill-opacity="1" /><path clip-path="url(#clip730)" d="M1280.39 1481.64 L1288.03 1481.64 L1288.03 1455.28 L1279.72 1456.95 L1279.72 1452.69 L1287.98 1451.02 L1292.66 1451.02 L1292.66 1481.64 L1300.3 1481.64 L1300.3 1485.58 L1280.39 1485.58 L1280.39 1481.64 Z" fill="#000000" fill-rule="nonzero" fill-opacity="1" /><path clip-path="url(#clip730)" d="M1434.42 1481.64 L1450.74 1481.64 L1450.74 1485.58 L1428.8 1485.58 L1428.8 1481.64 Q1431.46 1478.89 1436.04 1474.26 Q1440.65 1469.61 1441.83 1468.27 Q1444.08 1465.74 1444.96 1464.01 Q1445.86 1462.25 1445.86 1460.56 Q1445.86 1457.8 1443.91 1456.07 Q1441.99 1454.33 1438.89 1454.33 Q1436.69 1454.33 1434.24 1455.09 Q1431.81 1455.86 1429.03 1457.41 L1429.03 1452.69 Q1431.85 1451.55 1434.31 1450.97 Q1436.76 1450.39 1438.8 1450.39 Q1444.17 1450.39 1447.36 1453.08 Q1450.56 1455.77 1450.56 1460.26 Q1450.56 1462.39 1449.75 1464.31 Q1448.96 1466.2 1446.85 1468.8 Q1446.28 1469.47 1443.17 1472.69 Q1440.07 1475.88 1434.42 1481.64 Z" fill="#000000" fill-rule="nonzero" fill-opacity="1" /><path clip-path="url(#clip730)" d="M1259.31 1520.52 L1266.22 1520.52 L1278.02 1538.19 L1289.9 1520.52 L1296.8 1520.52 L1281.53 1543.34 L1297.82 1568.04 L1290.91 1568.04 L1277.55 1547.83 L1264.08 1568.04 L1257.14 1568.04 L1274.11 1542.68 L1259.31 1520.52 Z" fill="#000000" fill-rule="nonzero" fill-opacity="1" /><path clip-path="url(#clip730)" d="M1333.09 1578.87 L1333.09 1583.42 L1299.22 1583.42 L1299.22 1578.87 L1333.09 1578.87 Z" fill="#000000" fill-rule="nonzero" fill-opacity="1" /><path clip-path="url(#clip730)" d="M1340.54 1562.63 L1351.04 1562.63 L1351.04 1526.38 L1339.61 1528.67 L1339.61 1522.82 L1350.98 1520.52 L1357.4 1520.52 L1357.4 1562.63 L1367.91 1562.63 L1367.91 1568.04 L1340.54 1568.04 L1340.54 1562.63 Z" fill="#000000" fill-rule="nonzero" fill-opacity="1" /><polyline clip-path="url(#clip730)" style="stroke:#000000; stroke-linecap:round; stroke-linejoin:round; stroke-width:4; stroke-opacity:1; fill:none" points="272.297,1423.18 272.297,123.472 "/>
<polyline clip-path="url(#clip730)" style="stroke:#000000; stroke-linecap:round; stroke-linejoin:round; stroke-width:4; stroke-opacity:1; fill:none" points="272.297,1093.57 291.194,1093.57 "/>
<polyline clip-path="url(#clip730)" style="stroke:#000000; stroke-linecap:round; stroke-linejoin:round; stroke-width:4; stroke-opacity:1; fill:none" points="272.297,1005.84 291.194,1005.84 "/>
<polyline clip-path="url(#clip730)" style="stroke:#000000; stroke-linecap:round; stroke-linejoin:round; stroke-width:4; stroke-opacity:1; fill:none" points="272.297,794.04 291.194,794.04 "/>
<polyline clip-path="url(#clip730)" style="stroke:#000000; stroke-linecap:round; stroke-linejoin:round; stroke-width:4; stroke-opacity:1; fill:none" points="272.297,582.241 291.194,582.241 "/>
<path clip-path="url(#clip730)" d="M224.352 1079.37 Q220.741 1079.37 218.912 1082.93 Q217.107 1086.47 217.107 1093.6 Q217.107 1100.71 218.912 1104.27 Q220.741 1107.82 224.352 1107.82 Q227.986 1107.82 229.792 1104.27 Q231.621 1100.71 231.621 1093.6 Q231.621 1086.47 229.792 1082.93 Q227.986 1079.37 224.352 1079.37 M224.352 1075.66 Q230.162 1075.66 233.218 1080.27 Q236.297 1084.85 236.297 1093.6 Q236.297 1102.33 233.218 1106.94 Q230.162 1111.52 224.352 1111.52 Q218.542 1111.52 215.463 1106.94 Q212.408 1102.33 212.408 1093.6 Q212.408 1084.85 215.463 1080.27 Q218.542 1075.66 224.352 1075.66 Z" fill="#000000" fill-rule="nonzero" fill-opacity="1" /><path clip-path="url(#clip730)" d="M142.501 1019.18 L158.82 1019.18 L158.82 1023.12 L136.876 1023.12 L136.876 1019.18 Q139.538 1016.43 144.121 1011.8 Q148.728 1007.15 149.908 1005.8 Q152.153 1003.28 153.033 1001.54 Q153.936 999.785 153.936 998.095 Q153.936 995.341 151.991 993.604 Q150.07 991.868 146.968 991.868 Q144.769 991.868 142.316 992.632 Q139.885 993.396 137.107 994.947 L137.107 990.225 Q139.931 989.091 142.385 988.512 Q144.839 987.933 146.876 987.933 Q152.246 987.933 155.44 990.618 Q158.635 993.304 158.635 997.794 Q158.635 999.924 157.825 1001.85 Q157.038 1003.74 154.931 1006.34 Q154.353 1007.01 151.251 1010.22 Q148.149 1013.42 142.501 1019.18 Z" fill="#000000" fill-rule="nonzero" fill-opacity="1" /><path clip-path="url(#clip730)" d="M165.88 1008.23 L178.357 1008.23 L178.357 1012.03 L165.88 1012.03 L165.88 1008.23 Z" fill="#000000" fill-rule="nonzero" fill-opacity="1" /><path clip-path="url(#clip730)" d="M206.505 984.669 L210.88 984.669 L210.88 986.892 L208.218 986.892 L194.468 1024.07 L192.94 1024.07 L185.556 1003.63 L182.663 1004.67 L182.084 1002.82 L188.635 1000.55 L194.561 1016.96 L206.505 984.669 Z" fill="#000000" fill-rule="nonzero" fill-opacity="1" /><path clip-path="url(#clip730)" d="M219.977 1019.18 L236.297 1019.18 L236.297 1023.12 L214.352 1023.12 L214.352 1019.18 Q217.014 1016.43 221.598 1011.8 Q226.204 1007.15 227.385 1005.8 Q229.63 1003.28 230.51 1001.54 Q231.412 999.785 231.412 998.095 Q231.412 995.341 229.468 993.604 Q227.547 991.868 224.445 991.868 Q222.246 991.868 219.792 992.632 Q217.361 993.396 214.584 994.947 L214.584 990.225 Q217.408 989.091 219.861 988.512 Q222.315 987.933 224.352 987.933 Q229.723 987.933 232.917 990.618 Q236.111 993.304 236.111 997.794 Q236.111 999.924 235.301 1001.85 Q234.514 1003.74 232.408 1006.34 Q231.829 1007.01 228.727 1010.22 Q225.625 1013.42 219.977 1019.18 Z" fill="#000000" fill-rule="nonzero" fill-opacity="1" /><path clip-path="url(#clip730)" d="M219.977 807.384 L236.297 807.384 L236.297 811.32 L214.352 811.32 L214.352 807.384 Q217.014 804.63 221.598 800 Q226.204 795.347 227.385 794.005 Q229.63 791.482 230.51 789.746 Q231.412 787.986 231.412 786.296 Q231.412 783.542 229.468 781.806 Q227.547 780.07 224.445 780.07 Q222.246 780.07 219.792 780.834 Q217.361 781.597 214.584 783.148 L214.584 778.426 Q217.408 777.292 219.861 776.713 Q222.315 776.135 224.352 776.135 Q229.723 776.135 232.917 778.82 Q236.111 781.505 236.111 785.996 Q236.111 788.125 235.301 790.046 Q234.514 791.945 232.408 794.537 Q231.829 795.208 228.727 798.426 Q225.625 801.62 219.977 807.384 Z" fill="#000000" fill-rule="nonzero" fill-opacity="1" /><path clip-path="url(#clip730)" d="M119.885 595.586 L136.204 595.586 L136.204 599.521 L114.26 599.521 L114.26 595.586 Q116.922 592.831 121.505 588.201 Q126.112 583.549 127.292 582.206 Q129.538 579.683 130.417 577.947 Q131.32 576.188 131.32 574.498 Q131.32 571.743 129.376 570.007 Q127.455 568.271 124.353 568.271 Q122.154 568.271 119.7 569.035 Q117.269 569.799 114.492 571.35 L114.492 566.627 Q117.316 565.493 119.769 564.915 Q122.223 564.336 124.26 564.336 Q129.63 564.336 132.825 567.021 Q136.019 569.706 136.019 574.197 Q136.019 576.327 135.209 578.248 Q134.422 580.146 132.316 582.739 Q131.737 583.41 128.635 586.627 Q125.533 589.822 119.885 595.586 Z" fill="#000000" fill-rule="nonzero" fill-opacity="1" /><path clip-path="url(#clip730)" d="M162.755 569.799 L162.755 582.692 L175.649 582.692 L175.649 586.627 L162.755 586.627 L162.755 599.521 L158.866 599.521 L158.866 586.627 L145.973 586.627 L145.973 582.692 L158.866 582.692 L158.866 569.799 L162.755 569.799 Z" fill="#000000" fill-rule="nonzero" fill-opacity="1" /><path clip-path="url(#clip730)" d="M206.505 561.072 L210.88 561.072 L210.88 563.294 L208.218 563.294 L194.468 600.47 L192.94 600.47 L185.556 580.03 L182.663 581.072 L182.084 579.22 L188.635 576.952 L194.561 593.363 L206.505 561.072 Z" fill="#000000" fill-rule="nonzero" fill-opacity="1" /><path clip-path="url(#clip730)" d="M219.977 595.586 L236.297 595.586 L236.297 599.521 L214.352 599.521 L214.352 595.586 Q217.014 592.831 221.598 588.201 Q226.204 583.549 227.385 582.206 Q229.63 579.683 230.51 577.947 Q231.412 576.188 231.412 574.498 Q231.412 571.743 229.468 570.007 Q227.547 568.271 224.445 568.271 Q222.246 568.271 219.792 569.035 Q217.361 569.799 214.584 571.35 L214.584 566.627 Q217.408 565.493 219.861 564.915 Q222.315 564.336 224.352 564.336 Q229.723 564.336 232.917 567.021 Q236.111 569.706 236.111 574.197 Q236.111 576.327 235.301 578.248 Q234.514 580.146 232.408 582.739 Q231.829 583.41 228.727 586.627 Q225.625 589.822 219.977 595.586 Z" fill="#000000" fill-rule="nonzero" fill-opacity="1" /><path clip-path="url(#clip730)" d="M16.4842 826.289 L16.4842 819.382 L34.149 807.573 L16.4842 795.701 L16.4842 788.795 L39.3052 804.072 L64.0042 787.776 L64.0042 794.683 L43.793 808.051 L64.0042 821.514 L64.0042 828.453 L38.6368 811.488 L16.4842 826.289 Z" fill="#000000" fill-rule="nonzero" fill-opacity="1" /><path clip-path="url(#clip730)" d="M74.8259 752.51 L79.3773 752.51 L79.3773 786.376 L74.8259 786.376 L74.8259 752.51 Z" fill="#000000" fill-rule="nonzero" fill-opacity="1" /><path clip-path="url(#clip730)" d="M58.5933 740.638 L58.5933 718.199 L64.0042 718.199 L64.0042 748.372 L58.5933 748.372 Q54.8057 744.712 48.44 738.41 Q42.0425 732.076 40.1964 730.453 Q36.7271 727.366 34.34 726.156 Q31.921 724.915 29.5975 724.915 Q25.8099 724.915 23.4228 727.588 Q21.0356 730.23 21.0356 734.495 Q21.0356 737.519 22.086 740.893 Q23.1363 744.235 25.2688 748.054 L18.7758 748.054 Q17.2162 744.171 16.4205 740.797 Q15.6248 737.423 15.6248 734.622 Q15.6248 727.238 19.3169 722.846 Q23.009 718.454 29.1837 718.454 Q32.112 718.454 34.7537 719.568 Q37.3637 720.65 40.9285 723.546 Q41.8515 724.342 46.2757 728.607 Q50.668 732.872 58.5933 740.638 Z" fill="#000000" fill-rule="nonzero" fill-opacity="1" /><path clip-path="url(#clip730)" d="M683.887 43.6931 L683.887 65.8515 L697.012 65.8515 Q703.615 65.8515 706.774 63.1374 Q709.974 60.3828 709.974 54.752 Q709.974 49.0808 706.774 46.4072 Q703.615 43.6931 697.012 43.6931 L683.887 43.6931 M683.887 18.8205 L683.887 37.0496 L695.999 37.0496 Q701.994 37.0496 704.911 34.8216 Q707.868 32.5531 707.868 27.935 Q707.868 23.3575 704.911 21.089 Q701.994 18.8205 695.999 18.8205 L683.887 18.8205 M675.704 12.096 L696.606 12.096 Q705.964 12.096 711.028 15.9849 Q716.091 19.8737 716.091 27.0438 Q716.091 32.5936 713.499 35.8748 Q710.906 39.156 705.883 39.9662 Q711.919 41.2625 715.241 45.3944 Q718.603 49.4858 718.603 55.6432 Q718.603 63.745 713.094 68.1605 Q707.584 72.576 697.417 72.576 L675.704 72.576 L675.704 12.096 Z" fill="#000000" fill-rule="nonzero" fill-opacity="1" /><path clip-path="url(#clip730)" d="M732.295 27.2059 L739.749 27.2059 L739.749 72.576 L732.295 72.576 L732.295 27.2059 M732.295 9.54393 L739.749 9.54393 L739.749 18.9825 L732.295 18.9825 L732.295 9.54393 Z" fill="#000000" fill-rule="nonzero" fill-opacity="1" /><path clip-path="url(#clip730)" d="M749.997 27.2059 L757.897 27.2059 L772.075 65.2844 L786.253 27.2059 L794.152 27.2059 L777.138 72.576 L767.011 72.576 L749.997 27.2059 Z" fill="#000000" fill-rule="nonzero" fill-opacity="1" /><path clip-path="url(#clip730)" d="M825.061 49.7694 Q816.027 49.7694 812.543 51.8354 Q809.06 53.9013 809.06 58.8839 Q809.06 62.8538 811.652 65.2034 Q814.285 67.5124 818.782 67.5124 Q824.98 67.5124 828.706 63.1374 Q832.474 58.7219 832.474 51.4303 L832.474 49.7694 L825.061 49.7694 M839.927 46.6907 L839.927 72.576 L832.474 72.576 L832.474 65.6895 Q829.922 69.8214 826.114 71.8063 Q822.306 73.7508 816.797 73.7508 Q809.829 73.7508 805.697 69.8619 Q801.606 65.9325 801.606 59.3701 Q801.606 51.7138 806.71 47.825 Q811.855 43.9361 822.022 43.9361 L832.474 43.9361 L832.474 43.2069 Q832.474 38.0623 829.071 35.2672 Q825.709 32.4315 819.592 32.4315 Q815.703 32.4315 812.017 33.3632 Q808.33 34.295 804.928 36.1584 L804.928 29.2718 Q809.019 27.692 812.867 26.9223 Q816.716 26.1121 820.362 26.1121 Q830.205 26.1121 835.066 31.2163 Q839.927 36.3204 839.927 46.6907 Z" fill="#000000" fill-rule="nonzero" fill-opacity="1" /><path clip-path="url(#clip730)" d="M881.571 34.1734 Q880.315 33.4443 878.816 33.1202 Q877.358 32.7556 875.575 32.7556 Q869.256 32.7556 865.853 36.8875 Q862.491 40.9789 862.491 48.6757 L862.491 72.576 L854.997 72.576 L854.997 27.2059 L862.491 27.2059 L862.491 34.2544 Q864.841 30.1225 868.608 28.1376 Q872.375 26.1121 877.763 26.1121 Q878.533 26.1121 879.464 26.2337 Q880.396 26.3147 881.53 26.5172 L881.571 34.1734 Z" fill="#000000" fill-rule="nonzero" fill-opacity="1" /><path clip-path="url(#clip730)" d="M889.389 27.2059 L896.843 27.2059 L896.843 72.576 L889.389 72.576 L889.389 27.2059 M889.389 9.54393 L896.843 9.54393 L896.843 18.9825 L889.389 18.9825 L889.389 9.54393 Z" fill="#000000" fill-rule="nonzero" fill-opacity="1" /><path clip-path="url(#clip730)" d="M933.058 49.7694 Q924.024 49.7694 920.54 51.8354 Q917.057 53.9013 917.057 58.8839 Q917.057 62.8538 919.649 65.2034 Q922.282 67.5124 926.779 67.5124 Q932.977 67.5124 936.704 63.1374 Q940.471 58.7219 940.471 51.4303 L940.471 49.7694 L933.058 49.7694 M947.925 46.6907 L947.925 72.576 L940.471 72.576 L940.471 65.6895 Q937.919 69.8214 934.111 71.8063 Q930.303 73.7508 924.794 73.7508 Q917.826 73.7508 913.694 69.8619 Q909.603 65.9325 909.603 59.3701 Q909.603 51.7138 914.707 47.825 Q919.852 43.9361 930.02 43.9361 L940.471 43.9361 L940.471 43.2069 Q940.471 38.0623 937.068 35.2672 Q933.706 32.4315 927.589 32.4315 Q923.7 32.4315 920.014 33.3632 Q916.328 34.295 912.925 36.1584 L912.925 29.2718 Q917.016 27.692 920.865 26.9223 Q924.713 26.1121 928.359 26.1121 Q938.202 26.1121 943.064 31.2163 Q947.925 36.3204 947.925 46.6907 Z" fill="#000000" fill-rule="nonzero" fill-opacity="1" /><path clip-path="url(#clip730)" d="M970.65 14.324 L970.65 27.2059 L986.003 27.2059 L986.003 32.9987 L970.65 32.9987 L970.65 57.6282 Q970.65 63.1779 972.149 64.7578 Q973.688 66.3376 978.347 66.3376 L986.003 66.3376 L986.003 72.576 L978.347 72.576 Q969.718 72.576 966.437 69.3758 Q963.156 66.1351 963.156 57.6282 L963.156 32.9987 L957.687 32.9987 L957.687 27.2059 L963.156 27.2059 L963.156 14.324 L970.65 14.324 Z" fill="#000000" fill-rule="nonzero" fill-opacity="1" /><path clip-path="url(#clip730)" d="M1034.61 48.0275 L1034.61 51.6733 L1000.34 51.6733 Q1000.83 59.3701 1004.96 63.421 Q1009.13 67.4314 1016.55 67.4314 Q1020.84 67.4314 1024.85 66.3781 Q1028.9 65.3249 1032.87 63.2184 L1032.87 70.267 Q1028.86 71.9684 1024.65 72.8596 Q1020.44 73.7508 1016.1 73.7508 Q1005.24 73.7508 998.885 67.4314 Q992.566 61.1119 992.566 50.3365 Q992.566 39.1965 998.561 32.6746 Q1004.6 26.1121 1014.81 26.1121 Q1023.96 26.1121 1029.27 32.0264 Q1034.61 37.9003 1034.61 48.0275 M1027.16 45.84 Q1027.08 39.7232 1023.72 36.0774 Q1020.4 32.4315 1014.89 32.4315 Q1008.65 32.4315 1004.88 35.9558 Q1001.15 39.4801 1000.59 45.8805 L1027.16 45.84 Z" fill="#000000" fill-rule="nonzero" fill-opacity="1" /><path clip-path="url(#clip730)" d="M1114.78 63.9476 L1114.78 47.7034 L1101.41 47.7034 L1101.41 40.9789 L1122.88 40.9789 L1122.88 66.9452 Q1118.14 70.3075 1112.43 72.0494 Q1106.72 73.7508 1100.24 73.7508 Q1086.06 73.7508 1078.04 65.4869 Q1070.06 57.1826 1070.06 42.3968 Q1070.06 27.5705 1078.04 19.3066 Q1086.06 11.0023 1100.24 11.0023 Q1106.15 11.0023 1111.46 12.4606 Q1116.81 13.9189 1121.3 16.7545 L1121.3 25.464 Q1116.77 21.6156 1111.66 19.6712 Q1106.56 17.7268 1100.93 17.7268 Q1089.83 17.7268 1084.24 23.9246 Q1078.69 30.1225 1078.69 42.3968 Q1078.69 54.6305 1084.24 60.8284 Q1089.83 67.0263 1100.93 67.0263 Q1105.26 67.0263 1108.66 66.2971 Q1112.07 65.5274 1114.78 63.9476 Z" fill="#000000" fill-rule="nonzero" fill-opacity="1" /><path clip-path="url(#clip730)" d="M1158.13 49.7694 Q1149.09 49.7694 1145.61 51.8354 Q1142.12 53.9013 1142.12 58.8839 Q1142.12 62.8538 1144.72 65.2034 Q1147.35 67.5124 1151.85 67.5124 Q1158.04 67.5124 1161.77 63.1374 Q1165.54 58.7219 1165.54 51.4303 L1165.54 49.7694 L1158.13 49.7694 M1172.99 46.6907 L1172.99 72.576 L1165.54 72.576 L1165.54 65.6895 Q1162.99 69.8214 1159.18 71.8063 Q1155.37 73.7508 1149.86 73.7508 Q1142.89 73.7508 1138.76 69.8619 Q1134.67 65.9325 1134.67 59.3701 Q1134.67 51.7138 1139.78 47.825 Q1144.92 43.9361 1155.09 43.9361 L1165.54 43.9361 L1165.54 43.2069 Q1165.54 38.0623 1162.14 35.2672 Q1158.77 32.4315 1152.66 32.4315 Q1148.77 32.4315 1145.08 33.3632 Q1141.4 34.295 1137.99 36.1584 L1137.99 29.2718 Q1142.08 27.692 1145.93 26.9223 Q1149.78 26.1121 1153.43 26.1121 Q1163.27 26.1121 1168.13 31.2163 Q1172.99 36.3204 1172.99 46.6907 Z" fill="#000000" fill-rule="nonzero" fill-opacity="1" /><path clip-path="url(#clip730)" d="M1187.58 54.671 L1187.58 27.2059 L1195.03 27.2059 L1195.03 54.3874 Q1195.03 60.8284 1197.54 64.0691 Q1200.05 67.2693 1205.08 67.2693 Q1211.11 67.2693 1214.6 63.421 Q1218.12 59.5726 1218.12 52.9291 L1218.12 27.2059 L1225.57 27.2059 L1225.57 72.576 L1218.12 72.576 L1218.12 65.6084 Q1215.41 69.7404 1211.8 71.7658 Q1208.24 73.7508 1203.5 73.7508 Q1195.68 73.7508 1191.63 68.8897 Q1187.58 64.0286 1187.58 54.671 M1206.33 26.1121 L1206.33 26.1121 Z" fill="#000000" fill-rule="nonzero" fill-opacity="1" /><path clip-path="url(#clip730)" d="M1269.85 28.5427 L1269.85 35.5912 Q1266.69 33.9709 1263.29 33.1607 Q1259.88 32.3505 1256.24 32.3505 Q1250.69 32.3505 1247.89 34.0519 Q1245.14 35.7533 1245.14 39.156 Q1245.14 41.7486 1247.12 43.2475 Q1249.11 44.7058 1255.1 46.0426 L1257.66 46.6097 Q1265.6 48.3111 1268.92 51.4303 Q1272.28 54.509 1272.28 60.0587 Q1272.28 66.3781 1267.26 70.0644 Q1262.27 73.7508 1253.52 73.7508 Q1249.88 73.7508 1245.91 73.0216 Q1241.98 72.3329 1237.6 70.9151 L1237.6 63.2184 Q1241.74 65.3654 1245.75 66.4591 Q1249.76 67.5124 1253.69 67.5124 Q1258.95 67.5124 1261.79 65.73 Q1264.62 63.9071 1264.62 60.6258 Q1264.62 57.5877 1262.56 55.9673 Q1260.53 54.3469 1253.61 52.8481 L1251.01 52.2405 Q1244.09 50.7821 1241.01 47.7845 Q1237.93 44.7463 1237.93 39.4801 Q1237.93 33.0797 1242.47 29.5959 Q1247 26.1121 1255.35 26.1121 Q1259.48 26.1121 1263.13 26.7198 Q1266.77 27.3274 1269.85 28.5427 Z" fill="#000000" fill-rule="nonzero" fill-opacity="1" /><path clip-path="url(#clip730)" d="M1313.07 28.5427 L1313.07 35.5912 Q1309.91 33.9709 1306.51 33.1607 Q1303.11 32.3505 1299.46 32.3505 Q1293.91 32.3505 1291.12 34.0519 Q1288.36 35.7533 1288.36 39.156 Q1288.36 41.7486 1290.35 43.2475 Q1292.33 44.7058 1298.33 46.0426 L1300.88 46.6097 Q1308.82 48.3111 1312.14 51.4303 Q1315.5 54.509 1315.5 60.0587 Q1315.5 66.3781 1310.48 70.0644 Q1305.5 73.7508 1296.75 73.7508 Q1293.1 73.7508 1289.13 73.0216 Q1285.2 72.3329 1280.83 70.9151 L1280.83 63.2184 Q1284.96 65.3654 1288.97 66.4591 Q1292.98 67.5124 1296.91 67.5124 Q1302.18 67.5124 1305.01 65.73 Q1307.85 63.9071 1307.85 60.6258 Q1307.85 57.5877 1305.78 55.9673 Q1303.76 54.3469 1296.83 52.8481 L1294.24 52.2405 Q1287.31 50.7821 1284.23 47.7845 Q1281.15 44.7463 1281.15 39.4801 Q1281.15 33.0797 1285.69 29.5959 Q1290.23 26.1121 1298.57 26.1121 Q1302.7 26.1121 1306.35 26.7198 Q1309.99 27.3274 1313.07 28.5427 Z" fill="#000000" fill-rule="nonzero" fill-opacity="1" /><path clip-path="url(#clip730)" d="M1327.37 27.2059 L1334.83 27.2059 L1334.83 72.576 L1327.37 72.576 L1327.37 27.2059 M1327.37 9.54393 L1334.83 9.54393 L1334.83 18.9825 L1327.37 18.9825 L1327.37 9.54393 Z" fill="#000000" fill-rule="nonzero" fill-opacity="1" /><path clip-path="url(#clip730)" d="M1371.04 49.7694 Q1362.01 49.7694 1358.52 51.8354 Q1355.04 53.9013 1355.04 58.8839 Q1355.04 62.8538 1357.63 65.2034 Q1360.27 67.5124 1364.76 67.5124 Q1370.96 67.5124 1374.69 63.1374 Q1378.45 58.7219 1378.45 51.4303 L1378.45 49.7694 L1371.04 49.7694 M1385.91 46.6907 L1385.91 72.576 L1378.45 72.576 L1378.45 65.6895 Q1375.9 69.8214 1372.09 71.8063 Q1368.29 73.7508 1362.78 73.7508 Q1355.81 73.7508 1351.68 69.8619 Q1347.59 65.9325 1347.59 59.3701 Q1347.59 51.7138 1352.69 47.825 Q1357.84 43.9361 1368 43.9361 L1378.45 43.9361 L1378.45 43.2069 Q1378.45 38.0623 1375.05 35.2672 Q1371.69 32.4315 1365.57 32.4315 Q1361.68 32.4315 1358 33.3632 Q1354.31 34.295 1350.91 36.1584 L1350.91 29.2718 Q1355 27.692 1358.85 26.9223 Q1362.7 26.1121 1366.34 26.1121 Q1376.19 26.1121 1381.05 31.2163 Q1385.91 36.3204 1385.91 46.6907 Z" fill="#000000" fill-rule="nonzero" fill-opacity="1" /><path clip-path="url(#clip730)" d="M1438.98 45.1919 L1438.98 72.576 L1431.52 72.576 L1431.52 45.4349 Q1431.52 38.994 1429.01 35.7938 Q1426.5 32.5936 1421.48 32.5936 Q1415.44 32.5936 1411.96 36.4419 Q1408.47 40.2903 1408.47 46.9338 L1408.47 72.576 L1400.98 72.576 L1400.98 27.2059 L1408.47 27.2059 L1408.47 34.2544 Q1411.15 30.163 1414.75 28.1376 Q1418.4 26.1121 1423.14 26.1121 Q1430.95 26.1121 1434.96 30.9732 Q1438.98 35.7938 1438.98 45.1919 Z" fill="#000000" fill-rule="nonzero" fill-opacity="1" /><path clip-path="url(#clip730)" d="M1488.72 18.8205 L1488.72 65.8515 L1498.6 65.8515 Q1511.12 65.8515 1516.91 60.1802 Q1522.75 54.509 1522.75 42.2752 Q1522.75 30.1225 1516.91 24.4918 Q1511.12 18.8205 1498.6 18.8205 L1488.72 18.8205 M1480.54 12.096 L1497.35 12.096 Q1514.93 12.096 1523.15 19.4281 Q1531.38 26.7198 1531.38 42.2752 Q1531.38 57.9117 1523.11 65.2439 Q1514.85 72.576 1497.35 72.576 L1480.54 72.576 L1480.54 12.096 Z" fill="#000000" fill-rule="nonzero" fill-opacity="1" /><path clip-path="url(#clip730)" d="M1544.1 27.2059 L1551.55 27.2059 L1551.55 72.576 L1544.1 72.576 L1544.1 27.2059 M1544.1 9.54393 L1551.55 9.54393 L1551.55 18.9825 L1544.1 18.9825 L1544.1 9.54393 Z" fill="#000000" fill-rule="nonzero" fill-opacity="1" /><path clip-path="url(#clip730)" d="M1596.07 28.5427 L1596.07 35.5912 Q1592.91 33.9709 1589.51 33.1607 Q1586.1 32.3505 1582.46 32.3505 Q1576.91 32.3505 1574.11 34.0519 Q1571.36 35.7533 1571.36 39.156 Q1571.36 41.7486 1573.34 43.2475 Q1575.33 44.7058 1581.32 46.0426 L1583.88 46.6097 Q1591.82 48.3111 1595.14 51.4303 Q1598.5 54.509 1598.5 60.0587 Q1598.5 66.3781 1593.48 70.0644 Q1588.49 73.7508 1579.74 73.7508 Q1576.1 73.7508 1572.13 73.0216 Q1568.2 72.3329 1563.82 70.9151 L1563.82 63.2184 Q1567.96 65.3654 1571.97 66.4591 Q1575.98 67.5124 1579.91 67.5124 Q1585.17 67.5124 1588.01 65.73 Q1590.84 63.9071 1590.84 60.6258 Q1590.84 57.5877 1588.78 55.9673 Q1586.75 54.3469 1579.83 52.8481 L1577.23 52.2405 Q1570.31 50.7821 1567.23 47.7845 Q1564.15 44.7463 1564.15 39.4801 Q1564.15 33.0797 1568.69 29.5959 Q1573.22 26.1121 1581.57 26.1121 Q1585.7 26.1121 1589.34 26.7198 Q1592.99 27.3274 1596.07 28.5427 Z" fill="#000000" fill-rule="nonzero" fill-opacity="1" /><path clip-path="url(#clip730)" d="M1617.74 14.324 L1617.74 27.2059 L1633.09 27.2059 L1633.09 32.9987 L1617.74 32.9987 L1617.74 57.6282 Q1617.74 63.1779 1619.24 64.7578 Q1620.78 66.3376 1625.44 66.3376 L1633.09 66.3376 L1633.09 72.576 L1625.44 72.576 Q1616.81 72.576 1613.53 69.3758 Q1610.25 66.1351 1610.25 57.6282 L1610.25 32.9987 L1604.78 32.9987 L1604.78 27.2059 L1610.25 27.2059 L1610.25 14.324 L1617.74 14.324 Z" fill="#000000" fill-rule="nonzero" fill-opacity="1" /><path clip-path="url(#clip730)" d="M1669.19 34.1734 Q1667.93 33.4443 1666.43 33.1202 Q1664.98 32.7556 1663.19 32.7556 Q1656.87 32.7556 1653.47 36.8875 Q1650.11 40.9789 1650.11 48.6757 L1650.11 72.576 L1642.61 72.576 L1642.61 27.2059 L1650.11 27.2059 L1650.11 34.2544 Q1652.46 30.1225 1656.23 28.1376 Q1659.99 26.1121 1665.38 26.1121 Q1666.15 26.1121 1667.08 26.2337 Q1668.01 26.3147 1669.15 26.5172 L1669.19 34.1734 Z" fill="#000000" fill-rule="nonzero" fill-opacity="1" /><path clip-path="url(#clip730)" d="M1677.01 27.2059 L1684.46 27.2059 L1684.46 72.576 L1677.01 72.576 L1677.01 27.2059 M1677.01 9.54393 L1684.46 9.54393 L1684.46 18.9825 L1677.01 18.9825 L1677.01 9.54393 Z" fill="#000000" fill-rule="nonzero" fill-opacity="1" /><path clip-path="url(#clip730)" d="M1732.63 49.9314 Q1732.63 41.7081 1729.22 37.0496 Q1725.86 32.3505 1719.95 32.3505 Q1714.03 32.3505 1710.63 37.0496 Q1707.27 41.7081 1707.27 49.9314 Q1707.27 58.1548 1710.63 62.8538 Q1714.03 67.5124 1719.95 67.5124 Q1725.86 67.5124 1729.22 62.8538 Q1732.63 58.1548 1732.63 49.9314 M1707.27 34.0924 Q1709.62 30.0415 1713.18 28.0971 Q1716.79 26.1121 1721.77 26.1121 Q1730.03 26.1121 1735.18 32.6746 Q1740.36 39.2371 1740.36 49.9314 Q1740.36 60.6258 1735.18 67.1883 Q1730.03 73.7508 1721.77 73.7508 Q1716.79 73.7508 1713.18 71.8063 Q1709.62 69.8214 1707.27 65.7705 L1707.27 72.576 L1699.77 72.576 L1699.77 9.54393 L1707.27 9.54393 L1707.27 34.0924 Z" fill="#000000" fill-rule="nonzero" fill-opacity="1" /><path clip-path="url(#clip730)" d="M1751.95 54.671 L1751.95 27.2059 L1759.4 27.2059 L1759.4 54.3874 Q1759.4 60.8284 1761.91 64.0691 Q1764.42 67.2693 1769.45 67.2693 Q1775.48 67.2693 1778.97 63.421 Q1782.49 59.5726 1782.49 52.9291 L1782.49 27.2059 L1789.95 27.2059 L1789.95 72.576 L1782.49 72.576 L1782.49 65.6084 Q1779.78 69.7404 1776.17 71.7658 Q1772.61 73.7508 1767.87 73.7508 Q1760.05 73.7508 1756 68.8897 Q1751.95 64.0286 1751.95 54.671 M1770.7 26.1121 L1770.7 26.1121 Z" fill="#000000" fill-rule="nonzero" fill-opacity="1" /><path clip-path="url(#clip730)" d="M1812.67 14.324 L1812.67 27.2059 L1828.02 27.2059 L1828.02 32.9987 L1812.67 32.9987 L1812.67 57.6282 Q1812.67 63.1779 1814.17 64.7578 Q1815.71 66.3376 1820.37 66.3376 L1828.02 66.3376 L1828.02 72.576 L1820.37 72.576 Q1811.74 72.576 1808.46 69.3758 Q1805.18 66.1351 1805.18 57.6282 L1805.18 32.9987 L1799.71 32.9987 L1799.71 27.2059 L1805.18 27.2059 L1805.18 14.324 L1812.67 14.324 Z" fill="#000000" fill-rule="nonzero" fill-opacity="1" /><path clip-path="url(#clip730)" d="M1837.83 27.2059 L1845.28 27.2059 L1845.28 72.576 L1837.83 72.576 L1837.83 27.2059 M1837.83 9.54393 L1845.28 9.54393 L1845.28 18.9825 L1837.83 18.9825 L1837.83 9.54393 Z" fill="#000000" fill-rule="nonzero" fill-opacity="1" /><path clip-path="url(#clip730)" d="M1878.46 32.4315 Q1872.46 32.4315 1868.98 37.1306 Q1865.49 41.7891 1865.49 49.9314 Q1865.49 58.0738 1868.94 62.7728 Q1872.42 67.4314 1878.46 67.4314 Q1884.41 67.4314 1887.9 62.7323 Q1891.38 58.0333 1891.38 49.9314 Q1891.38 41.8701 1887.9 37.1711 Q1884.41 32.4315 1878.46 32.4315 M1878.46 26.1121 Q1888.18 26.1121 1893.73 32.4315 Q1899.28 38.7509 1899.28 49.9314 Q1899.28 61.0714 1893.73 67.4314 Q1888.18 73.7508 1878.46 73.7508 Q1868.7 73.7508 1863.15 67.4314 Q1857.64 61.0714 1857.64 49.9314 Q1857.64 38.7509 1863.15 32.4315 Q1868.7 26.1121 1878.46 26.1121 Z" fill="#000000" fill-rule="nonzero" fill-opacity="1" /><path clip-path="url(#clip730)" d="M1949.35 45.1919 L1949.35 72.576 L1941.89 72.576 L1941.89 45.4349 Q1941.89 38.994 1939.38 35.7938 Q1936.87 32.5936 1931.85 32.5936 Q1925.81 32.5936 1922.33 36.4419 Q1918.85 40.2903 1918.85 46.9338 L1918.85 72.576 L1911.35 72.576 L1911.35 27.2059 L1918.85 27.2059 L1918.85 34.2544 Q1921.52 30.163 1925.12 28.1376 Q1928.77 26.1121 1933.51 26.1121 Q1941.33 26.1121 1945.34 30.9732 Q1949.35 35.7938 1949.35 45.1919 Z" fill="#000000" fill-rule="nonzero" fill-opacity="1" /><circle clip-path="url(#clip732)" cx="1435.38" cy="795.322" r="7.2" fill="#009af9" fill-rule="evenodd" fill-opacity="1" stroke="#000000" stroke-opacity="1" stroke-width="3.2"/>
<circle clip-path="url(#clip732)" cx="1425.07" cy="663.886" r="7.2" fill="#009af9" fill-rule="evenodd" fill-opacity="1" stroke="#000000" stroke-opacity="1" stroke-width="3.2"/>
<circle clip-path="url(#clip732)" cx="1200.03" cy="1100.45" r="7.2" fill="#009af9" fill-rule="evenodd" fill-opacity="1" stroke="#000000" stroke-opacity="1" stroke-width="3.2"/>
<circle clip-path="url(#clip732)" cx="1695.48" cy="160.256" r="7.2" fill="#009af9" fill-rule="evenodd" fill-opacity="1" stroke="#000000" stroke-opacity="1" stroke-width="3.2"/>
<circle clip-path="url(#clip732)" cx="1403.8" cy="812.256" r="7.2" fill="#009af9" fill-rule="evenodd" fill-opacity="1" stroke="#000000" stroke-opacity="1" stroke-width="3.2"/>
<circle clip-path="url(#clip732)" cx="1395.74" cy="524.831" r="7.2" fill="#009af9" fill-rule="evenodd" fill-opacity="1" stroke="#000000" stroke-opacity="1" stroke-width="3.2"/>
<circle clip-path="url(#clip732)" cx="1420.53" cy="650.687" r="7.2" fill="#009af9" fill-rule="evenodd" fill-opacity="1" stroke="#000000" stroke-opacity="1" stroke-width="3.2"/>
<circle clip-path="url(#clip732)" cx="1433.79" cy="514.292" r="7.2" fill="#009af9" fill-rule="evenodd" fill-opacity="1" stroke="#000000" stroke-opacity="1" stroke-width="3.2"/>
<circle clip-path="url(#clip732)" cx="1070.59" cy="1045.78" r="7.2" fill="#009af9" fill-rule="evenodd" fill-opacity="1" stroke="#000000" stroke-opacity="1" stroke-width="3.2"/>
<circle clip-path="url(#clip732)" cx="1376.14" cy="976.832" r="7.2" fill="#009af9" fill-rule="evenodd" fill-opacity="1" stroke="#000000" stroke-opacity="1" stroke-width="3.2"/>
<circle clip-path="url(#clip732)" cx="1131.78" cy="930.046" r="7.2" fill="#009af9" fill-rule="evenodd" fill-opacity="1" stroke="#000000" stroke-opacity="1" stroke-width="3.2"/>
<circle clip-path="url(#clip732)" cx="1014.66" cy="1230.17" r="7.2" fill="#009af9" fill-rule="evenodd" fill-opacity="1" stroke="#000000" stroke-opacity="1" stroke-width="3.2"/>
<circle clip-path="url(#clip732)" cx="1428.05" cy="943.818" r="7.2" fill="#009af9" fill-rule="evenodd" fill-opacity="1" stroke="#000000" stroke-opacity="1" stroke-width="3.2"/>
<circle clip-path="url(#clip732)" cx="1325.03" cy="698.222" r="7.2" fill="#009af9" fill-rule="evenodd" fill-opacity="1" stroke="#000000" stroke-opacity="1" stroke-width="3.2"/>
<circle clip-path="url(#clip732)" cx="1275.65" cy="577.177" r="7.2" fill="#009af9" fill-rule="evenodd" fill-opacity="1" stroke="#000000" stroke-opacity="1" stroke-width="3.2"/>
<circle clip-path="url(#clip732)" cx="1291.66" cy="927.708" r="7.2" fill="#009af9" fill-rule="evenodd" fill-opacity="1" stroke="#000000" stroke-opacity="1" stroke-width="3.2"/>
<circle clip-path="url(#clip732)" cx="1350.02" cy="688.223" r="7.2" fill="#009af9" fill-rule="evenodd" fill-opacity="1" stroke="#000000" stroke-opacity="1" stroke-width="3.2"/>
<circle clip-path="url(#clip732)" cx="1102.37" cy="1122.81" r="7.2" fill="#009af9" fill-rule="evenodd" fill-opacity="1" stroke="#000000" stroke-opacity="1" stroke-width="3.2"/>
<circle clip-path="url(#clip732)" cx="1221.44" cy="898.496" r="7.2" fill="#009af9" fill-rule="evenodd" fill-opacity="1" stroke="#000000" stroke-opacity="1" stroke-width="3.2"/>
<circle clip-path="url(#clip732)" cx="1102.25" cy="1094.65" r="7.2" fill="#009af9" fill-rule="evenodd" fill-opacity="1" stroke="#000000" stroke-opacity="1" stroke-width="3.2"/>
<circle clip-path="url(#clip732)" cx="1309.21" cy="962.756" r="7.2" fill="#009af9" fill-rule="evenodd" fill-opacity="1" stroke="#000000" stroke-opacity="1" stroke-width="3.2"/>
<circle clip-path="url(#clip732)" cx="1243.76" cy="820.307" r="7.2" fill="#009af9" fill-rule="evenodd" fill-opacity="1" stroke="#000000" stroke-opacity="1" stroke-width="3.2"/>
<circle clip-path="url(#clip732)" cx="1153.96" cy="682.556" r="7.2" fill="#009af9" fill-rule="evenodd" fill-opacity="1" stroke="#000000" stroke-opacity="1" stroke-width="3.2"/>
<circle clip-path="url(#clip732)" cx="1449.14" cy="772.072" r="7.2" fill="#009af9" fill-rule="evenodd" fill-opacity="1" stroke="#000000" stroke-opacity="1" stroke-width="3.2"/>
<circle clip-path="url(#clip732)" cx="1282.59" cy="581.57" r="7.2" fill="#009af9" fill-rule="evenodd" fill-opacity="1" stroke="#000000" stroke-opacity="1" stroke-width="3.2"/>
<circle clip-path="url(#clip732)" cx="1257.48" cy="651.619" r="7.2" fill="#009af9" fill-rule="evenodd" fill-opacity="1" stroke="#000000" stroke-opacity="1" stroke-width="3.2"/>
<circle clip-path="url(#clip732)" cx="1183.63" cy="576.937" r="7.2" fill="#009af9" fill-rule="evenodd" fill-opacity="1" stroke="#000000" stroke-opacity="1" stroke-width="3.2"/>
<circle clip-path="url(#clip732)" cx="1409.03" cy="567.155" r="7.2" fill="#009af9" fill-rule="evenodd" fill-opacity="1" stroke="#000000" stroke-opacity="1" stroke-width="3.2"/>
<circle clip-path="url(#clip732)" cx="1512.06" cy="374.773" r="7.2" fill="#009af9" fill-rule="evenodd" fill-opacity="1" stroke="#000000" stroke-opacity="1" stroke-width="3.2"/>
<circle clip-path="url(#clip732)" cx="1421.56" cy="844.295" r="7.2" fill="#009af9" fill-rule="evenodd" fill-opacity="1" stroke="#000000" stroke-opacity="1" stroke-width="3.2"/>
<circle clip-path="url(#clip732)" cx="1259.91" cy="586.244" r="7.2" fill="#009af9" fill-rule="evenodd" fill-opacity="1" stroke="#000000" stroke-opacity="1" stroke-width="3.2"/>
<circle clip-path="url(#clip732)" cx="1203.62" cy="730.158" r="7.2" fill="#009af9" fill-rule="evenodd" fill-opacity="1" stroke="#000000" stroke-opacity="1" stroke-width="3.2"/>
<circle clip-path="url(#clip732)" cx="1350.12" cy="919.935" r="7.2" fill="#009af9" fill-rule="evenodd" fill-opacity="1" stroke="#000000" stroke-opacity="1" stroke-width="3.2"/>
<circle clip-path="url(#clip732)" cx="1158.84" cy="846.172" r="7.2" fill="#009af9" fill-rule="evenodd" fill-opacity="1" stroke="#000000" stroke-opacity="1" stroke-width="3.2"/>
<circle clip-path="url(#clip732)" cx="1228.73" cy="892.112" r="7.2" fill="#009af9" fill-rule="evenodd" fill-opacity="1" stroke="#000000" stroke-opacity="1" stroke-width="3.2"/>
<circle clip-path="url(#clip732)" cx="1172.66" cy="1072.36" r="7.2" fill="#009af9" fill-rule="evenodd" fill-opacity="1" stroke="#000000" stroke-opacity="1" stroke-width="3.2"/>
<circle clip-path="url(#clip732)" cx="1148.83" cy="936.58" r="7.2" fill="#009af9" fill-rule="evenodd" fill-opacity="1" stroke="#000000" stroke-opacity="1" stroke-width="3.2"/>
<circle clip-path="url(#clip732)" cx="1374.04" cy="685.107" r="7.2" fill="#009af9" fill-rule="evenodd" fill-opacity="1" stroke="#000000" stroke-opacity="1" stroke-width="3.2"/>
<circle clip-path="url(#clip732)" cx="1252.75" cy="386.09" r="7.2" fill="#009af9" fill-rule="evenodd" fill-opacity="1" stroke="#000000" stroke-opacity="1" stroke-width="3.2"/>
<circle clip-path="url(#clip732)" cx="1472.73" cy="763.85" r="7.2" fill="#009af9" fill-rule="evenodd" fill-opacity="1" stroke="#000000" stroke-opacity="1" stroke-width="3.2"/>
<circle clip-path="url(#clip732)" cx="1145.79" cy="872.728" r="7.2" fill="#009af9" fill-rule="evenodd" fill-opacity="1" stroke="#000000" stroke-opacity="1" stroke-width="3.2"/>
<circle clip-path="url(#clip732)" cx="1238.76" cy="982.018" r="7.2" fill="#009af9" fill-rule="evenodd" fill-opacity="1" stroke="#000000" stroke-opacity="1" stroke-width="3.2"/>
<circle clip-path="url(#clip732)" cx="1315.05" cy="955.555" r="7.2" fill="#009af9" fill-rule="evenodd" fill-opacity="1" stroke="#000000" stroke-opacity="1" stroke-width="3.2"/>
<circle clip-path="url(#clip732)" cx="1192.34" cy="935.585" r="7.2" fill="#009af9" fill-rule="evenodd" fill-opacity="1" stroke="#000000" stroke-opacity="1" stroke-width="3.2"/>
<circle clip-path="url(#clip732)" cx="1492.13" cy="422.39" r="7.2" fill="#009af9" fill-rule="evenodd" fill-opacity="1" stroke="#000000" stroke-opacity="1" stroke-width="3.2"/>
<circle clip-path="url(#clip732)" cx="1085.77" cy="1008.54" r="7.2" fill="#009af9" fill-rule="evenodd" fill-opacity="1" stroke="#000000" stroke-opacity="1" stroke-width="3.2"/>
<circle clip-path="url(#clip732)" cx="1666.5" cy="398.966" r="7.2" fill="#009af9" fill-rule="evenodd" fill-opacity="1" stroke="#000000" stroke-opacity="1" stroke-width="3.2"/>
<circle clip-path="url(#clip732)" cx="1356.2" cy="629.61" r="7.2" fill="#009af9" fill-rule="evenodd" fill-opacity="1" stroke="#000000" stroke-opacity="1" stroke-width="3.2"/>
<circle clip-path="url(#clip732)" cx="1317.85" cy="283.065" r="7.2" fill="#009af9" fill-rule="evenodd" fill-opacity="1" stroke="#000000" stroke-opacity="1" stroke-width="3.2"/>
<circle clip-path="url(#clip732)" cx="1207.23" cy="1386.4" r="7.2" fill="#009af9" fill-rule="evenodd" fill-opacity="1" stroke="#000000" stroke-opacity="1" stroke-width="3.2"/>
<circle clip-path="url(#clip732)" cx="1329.31" cy="758.064" r="7.2" fill="#009af9" fill-rule="evenodd" fill-opacity="1" stroke="#000000" stroke-opacity="1" stroke-width="3.2"/>
<circle clip-path="url(#clip732)" cx="1231.4" cy="848.505" r="7.2" fill="#009af9" fill-rule="evenodd" fill-opacity="1" stroke="#000000" stroke-opacity="1" stroke-width="3.2"/>
<circle clip-path="url(#clip732)" cx="946.932" cy="1237.24" r="7.2" fill="#009af9" fill-rule="evenodd" fill-opacity="1" stroke="#000000" stroke-opacity="1" stroke-width="3.2"/>
<circle clip-path="url(#clip732)" cx="1172.49" cy="742.476" r="7.2" fill="#009af9" fill-rule="evenodd" fill-opacity="1" stroke="#000000" stroke-opacity="1" stroke-width="3.2"/>
<circle clip-path="url(#clip732)" cx="1321.63" cy="655.385" r="7.2" fill="#009af9" fill-rule="evenodd" fill-opacity="1" stroke="#000000" stroke-opacity="1" stroke-width="3.2"/>
<circle clip-path="url(#clip732)" cx="1295.11" cy="703.771" r="7.2" fill="#009af9" fill-rule="evenodd" fill-opacity="1" stroke="#000000" stroke-opacity="1" stroke-width="3.2"/>
<circle clip-path="url(#clip732)" cx="896.69" cy="1251.07" r="7.2" fill="#009af9" fill-rule="evenodd" fill-opacity="1" stroke="#000000" stroke-opacity="1" stroke-width="3.2"/>
<circle clip-path="url(#clip732)" cx="1318.01" cy="801.121" r="7.2" fill="#009af9" fill-rule="evenodd" fill-opacity="1" stroke="#000000" stroke-opacity="1" stroke-width="3.2"/>
<circle clip-path="url(#clip732)" cx="1298.3" cy="644.36" r="7.2" fill="#009af9" fill-rule="evenodd" fill-opacity="1" stroke="#000000" stroke-opacity="1" stroke-width="3.2"/>
<circle clip-path="url(#clip732)" cx="1191.43" cy="1023.08" r="7.2" fill="#009af9" fill-rule="evenodd" fill-opacity="1" stroke="#000000" stroke-opacity="1" stroke-width="3.2"/>
<circle clip-path="url(#clip732)" cx="1134.39" cy="1093.01" r="7.2" fill="#009af9" fill-rule="evenodd" fill-opacity="1" stroke="#000000" stroke-opacity="1" stroke-width="3.2"/>
<circle clip-path="url(#clip732)" cx="1356.63" cy="793.982" r="7.2" fill="#009af9" fill-rule="evenodd" fill-opacity="1" stroke="#000000" stroke-opacity="1" stroke-width="3.2"/>
<circle clip-path="url(#clip732)" cx="1399.98" cy="957.961" r="7.2" fill="#009af9" fill-rule="evenodd" fill-opacity="1" stroke="#000000" stroke-opacity="1" stroke-width="3.2"/>
<circle clip-path="url(#clip732)" cx="1152.32" cy="784.193" r="7.2" fill="#009af9" fill-rule="evenodd" fill-opacity="1" stroke="#000000" stroke-opacity="1" stroke-width="3.2"/>
<circle clip-path="url(#clip732)" cx="1110.99" cy="1007.54" r="7.2" fill="#009af9" fill-rule="evenodd" fill-opacity="1" stroke="#000000" stroke-opacity="1" stroke-width="3.2"/>
<circle clip-path="url(#clip732)" cx="1463.21" cy="661.702" r="7.2" fill="#009af9" fill-rule="evenodd" fill-opacity="1" stroke="#000000" stroke-opacity="1" stroke-width="3.2"/>
<circle clip-path="url(#clip732)" cx="1178.95" cy="886.082" r="7.2" fill="#009af9" fill-rule="evenodd" fill-opacity="1" stroke="#000000" stroke-opacity="1" stroke-width="3.2"/>
<circle clip-path="url(#clip732)" cx="880.249" cy="1364.6" r="7.2" fill="#009af9" fill-rule="evenodd" fill-opacity="1" stroke="#000000" stroke-opacity="1" stroke-width="3.2"/>
<circle clip-path="url(#clip732)" cx="1125.44" cy="881.284" r="7.2" fill="#009af9" fill-rule="evenodd" fill-opacity="1" stroke="#000000" stroke-opacity="1" stroke-width="3.2"/>
<circle clip-path="url(#clip732)" cx="1578.91" cy="222.148" r="7.2" fill="#009af9" fill-rule="evenodd" fill-opacity="1" stroke="#000000" stroke-opacity="1" stroke-width="3.2"/>
<circle clip-path="url(#clip732)" cx="1237.24" cy="804.998" r="7.2" fill="#009af9" fill-rule="evenodd" fill-opacity="1" stroke="#000000" stroke-opacity="1" stroke-width="3.2"/>
<circle clip-path="url(#clip732)" cx="1429.04" cy="852.49" r="7.2" fill="#009af9" fill-rule="evenodd" fill-opacity="1" stroke="#000000" stroke-opacity="1" stroke-width="3.2"/>
<circle clip-path="url(#clip732)" cx="1359.39" cy="714.317" r="7.2" fill="#009af9" fill-rule="evenodd" fill-opacity="1" stroke="#000000" stroke-opacity="1" stroke-width="3.2"/>
<circle clip-path="url(#clip732)" cx="1280.4" cy="860.532" r="7.2" fill="#009af9" fill-rule="evenodd" fill-opacity="1" stroke="#000000" stroke-opacity="1" stroke-width="3.2"/>
<circle clip-path="url(#clip732)" cx="1529.71" cy="458.276" r="7.2" fill="#009af9" fill-rule="evenodd" fill-opacity="1" stroke="#000000" stroke-opacity="1" stroke-width="3.2"/>
<circle clip-path="url(#clip732)" cx="1405.78" cy="626.374" r="7.2" fill="#009af9" fill-rule="evenodd" fill-opacity="1" stroke="#000000" stroke-opacity="1" stroke-width="3.2"/>
<circle clip-path="url(#clip732)" cx="1179.08" cy="824.336" r="7.2" fill="#009af9" fill-rule="evenodd" fill-opacity="1" stroke="#000000" stroke-opacity="1" stroke-width="3.2"/>
<circle clip-path="url(#clip732)" cx="1305.18" cy="999.047" r="7.2" fill="#009af9" fill-rule="evenodd" fill-opacity="1" stroke="#000000" stroke-opacity="1" stroke-width="3.2"/>
<circle clip-path="url(#clip732)" cx="1069.32" cy="1212.84" r="7.2" fill="#009af9" fill-rule="evenodd" fill-opacity="1" stroke="#000000" stroke-opacity="1" stroke-width="3.2"/>
<circle clip-path="url(#clip732)" cx="1257.89" cy="1016.55" r="7.2" fill="#009af9" fill-rule="evenodd" fill-opacity="1" stroke="#000000" stroke-opacity="1" stroke-width="3.2"/>
<circle clip-path="url(#clip732)" cx="1410.68" cy="687.567" r="7.2" fill="#009af9" fill-rule="evenodd" fill-opacity="1" stroke="#000000" stroke-opacity="1" stroke-width="3.2"/>
<circle clip-path="url(#clip732)" cx="1063.68" cy="943.756" r="7.2" fill="#009af9" fill-rule="evenodd" fill-opacity="1" stroke="#000000" stroke-opacity="1" stroke-width="3.2"/>
<circle clip-path="url(#clip732)" cx="1315.73" cy="969.807" r="7.2" fill="#009af9" fill-rule="evenodd" fill-opacity="1" stroke="#000000" stroke-opacity="1" stroke-width="3.2"/>
<circle clip-path="url(#clip732)" cx="1744.8" cy="278.446" r="7.2" fill="#009af9" fill-rule="evenodd" fill-opacity="1" stroke="#000000" stroke-opacity="1" stroke-width="3.2"/>
<circle clip-path="url(#clip732)" cx="1277.46" cy="843.318" r="7.2" fill="#009af9" fill-rule="evenodd" fill-opacity="1" stroke="#000000" stroke-opacity="1" stroke-width="3.2"/>
<circle clip-path="url(#clip732)" cx="1118.14" cy="917.521" r="7.2" fill="#009af9" fill-rule="evenodd" fill-opacity="1" stroke="#000000" stroke-opacity="1" stroke-width="3.2"/>
<circle clip-path="url(#clip732)" cx="1092.86" cy="1046.06" r="7.2" fill="#009af9" fill-rule="evenodd" fill-opacity="1" stroke="#000000" stroke-opacity="1" stroke-width="3.2"/>
<circle clip-path="url(#clip732)" cx="1253.45" cy="667.912" r="7.2" fill="#009af9" fill-rule="evenodd" fill-opacity="1" stroke="#000000" stroke-opacity="1" stroke-width="3.2"/>
<circle clip-path="url(#clip732)" cx="1453.56" cy="634.82" r="7.2" fill="#009af9" fill-rule="evenodd" fill-opacity="1" stroke="#000000" stroke-opacity="1" stroke-width="3.2"/>
<circle clip-path="url(#clip732)" cx="1123.51" cy="1244.87" r="7.2" fill="#009af9" fill-rule="evenodd" fill-opacity="1" stroke="#000000" stroke-opacity="1" stroke-width="3.2"/>
<circle clip-path="url(#clip732)" cx="1213.13" cy="931.923" r="7.2" fill="#009af9" fill-rule="evenodd" fill-opacity="1" stroke="#000000" stroke-opacity="1" stroke-width="3.2"/>
<circle clip-path="url(#clip732)" cx="1443.71" cy="899.872" r="7.2" fill="#009af9" fill-rule="evenodd" fill-opacity="1" stroke="#000000" stroke-opacity="1" stroke-width="3.2"/>
<circle clip-path="url(#clip732)" cx="1205.95" cy="973.983" r="7.2" fill="#009af9" fill-rule="evenodd" fill-opacity="1" stroke="#000000" stroke-opacity="1" stroke-width="3.2"/>
<circle clip-path="url(#clip732)" cx="1085.24" cy="733.769" r="7.2" fill="#009af9" fill-rule="evenodd" fill-opacity="1" stroke="#000000" stroke-opacity="1" stroke-width="3.2"/>
<circle clip-path="url(#clip732)" cx="1237.04" cy="827.315" r="7.2" fill="#009af9" fill-rule="evenodd" fill-opacity="1" stroke="#000000" stroke-opacity="1" stroke-width="3.2"/>
<circle clip-path="url(#clip732)" cx="1285.39" cy="694.723" r="7.2" fill="#009af9" fill-rule="evenodd" fill-opacity="1" stroke="#000000" stroke-opacity="1" stroke-width="3.2"/>
<circle clip-path="url(#clip732)" cx="1324.17" cy="978.125" r="7.2" fill="#009af9" fill-rule="evenodd" fill-opacity="1" stroke="#000000" stroke-opacity="1" stroke-width="3.2"/>
<circle clip-path="url(#clip732)" cx="1263.14" cy="1070.03" r="7.2" fill="#009af9" fill-rule="evenodd" fill-opacity="1" stroke="#000000" stroke-opacity="1" stroke-width="3.2"/>
<circle clip-path="url(#clip732)" cx="1430.3" cy="796.299" r="7.2" fill="#009af9" fill-rule="evenodd" fill-opacity="1" stroke="#000000" stroke-opacity="1" stroke-width="3.2"/>
<circle clip-path="url(#clip732)" cx="1276.02" cy="901.845" r="7.2" fill="#009af9" fill-rule="evenodd" fill-opacity="1" stroke="#000000" stroke-opacity="1" stroke-width="3.2"/>
<polyline clip-path="url(#clip732)" style="stroke:#ff0000; stroke-linecap:round; stroke-linejoin:round; stroke-width:4; stroke-opacity:1; fill:none" points="1423.96,727.063 1427.94,714.454 1431.36,702.166 1434.21,690.247 1436.49,678.746 1438.17,667.71 1439.26,657.182 1439.74,647.206 1439.63,637.821 1438.91,629.064 1437.59,620.972 1435.67,613.577 1433.17,606.909 1430.1,600.994 1426.45,595.856 1422.26,591.517 1417.54,587.993 1412.31,585.298 1406.58,583.444 1400.38,582.438 1393.74,582.284 1386.68,582.983 1379.23,584.532 1371.42,586.924 1363.28,590.15 1354.85,594.198 1346.16,599.05 1337.24,604.687 1328.13,611.086 1318.87,618.222 1309.49,626.067 1300.03,634.587 1290.53,643.75 1281.03,653.517 1271.57,663.851 1262.18,674.709 1252.9,686.047 1243.78,697.82 1234.83,709.981 1226.11,722.48 1217.65,735.267 1209.48,748.291 1201.63,761.499 1194.14,774.838 1187.04,788.255 1180.35,801.695 1174.1,815.104 1168.32,828.428 1163.03,841.613 1158.25,854.607 1154,867.357 1150.29,879.812 1147.15,891.922 1144.59,903.637 1142.61,914.912 1141.22,925.699 1140.44,935.956 1140.25,945.642 1140.67,954.717 1141.69,963.146 1143.31,970.893 1145.52,977.929 1148.31,984.223 1151.67,989.753 1155.59,994.493 1160.04,998.427 1165.03,1001.54 1170.51,1003.81 1176.48,1005.24 1182.9,1005.82 1189.76,1005.55 1197.02,1004.43 1204.65,1002.46 1212.62,999.645 1220.91,996.007 1229.48,991.555 1238.29,986.308 1247.31,980.286 1256.5,973.515 1265.82,966.021 1275.25,957.835 1284.73,948.989 1294.23,939.519 1303.72,929.463 1313.15,918.862 1322.49,907.758 1331.69,896.197 1340.73,884.224 1349.57,871.888 1358.16,859.238 1366.48,846.326 1374.5,833.203 1382.17,819.923 1389.47,806.539 1396.37,793.104 1402.85,779.673 1408.86,766.299 1414.4,753.038 1419.44,739.941 1423.96,727.063 "/>
<path clip-path="url(#clip730)" d="M1838.07 322.316 L2283.41 322.316 L2283.41 166.796 L1838.07 166.796  Z" fill="#ffffff" fill-rule="evenodd" fill-opacity="1"/>
<polyline clip-path="url(#clip730)" style="stroke:#000000; stroke-linecap:round; stroke-linejoin:round; stroke-width:4; stroke-opacity:1; fill:none" points="1838.07,322.316 2283.41,322.316 2283.41,166.796 1838.07,166.796 1838.07,322.316 "/>
<circle clip-path="url(#clip730)" cx="1930.54" cy="218.636" r="18.432" fill="#009af9" fill-rule="evenodd" fill-opacity="1" stroke="#000000" stroke-opacity="1" stroke-width="8.192"/>
<path clip-path="url(#clip730)" d="M2045.25 202.49 L2045.25 207.05 Q2042.58 205.777 2040.22 205.152 Q2037.86 204.527 2035.66 204.527 Q2031.84 204.527 2029.76 206.008 Q2027.7 207.49 2027.7 210.221 Q2027.7 212.513 2029.07 213.694 Q2030.45 214.851 2034.3 215.569 L2037.12 216.147 Q2042.35 217.143 2044.83 219.666 Q2047.33 222.166 2047.33 226.379 Q2047.33 231.402 2043.95 233.994 Q2040.59 236.587 2034.09 236.587 Q2031.63 236.587 2028.86 236.031 Q2026.1 235.476 2023.14 234.388 L2023.14 229.573 Q2025.99 231.17 2028.72 231.981 Q2031.45 232.791 2034.09 232.791 Q2038.09 232.791 2040.27 231.217 Q2042.44 229.643 2042.44 226.726 Q2042.44 224.18 2040.87 222.744 Q2039.32 221.309 2035.76 220.592 L2032.91 220.036 Q2027.68 218.995 2025.34 216.772 Q2023 214.55 2023 210.592 Q2023 206.008 2026.22 203.37 Q2029.46 200.731 2035.13 200.731 Q2037.56 200.731 2040.08 201.171 Q2042.61 201.61 2045.25 202.49 Z" fill="#000000" fill-rule="nonzero" fill-opacity="1" /><path clip-path="url(#clip730)" d="M2066.22 222.883 Q2061.06 222.883 2059.07 224.064 Q2057.07 225.244 2057.07 228.092 Q2057.07 230.36 2058.56 231.703 Q2060.06 233.022 2062.63 233.022 Q2066.17 233.022 2068.3 230.522 Q2070.45 227.999 2070.45 223.832 L2070.45 222.883 L2066.22 222.883 M2074.71 221.124 L2074.71 235.916 L2070.45 235.916 L2070.45 231.981 Q2069 234.342 2066.82 235.476 Q2064.64 236.587 2061.5 236.587 Q2057.51 236.587 2055.15 234.365 Q2052.82 232.119 2052.82 228.369 Q2052.82 223.994 2055.73 221.772 Q2058.67 219.55 2064.48 219.55 L2070.45 219.55 L2070.45 219.133 Q2070.45 216.194 2068.51 214.596 Q2066.59 212.976 2063.09 212.976 Q2060.87 212.976 2058.76 213.508 Q2056.66 214.041 2054.71 215.106 L2054.71 211.17 Q2057.05 210.268 2059.25 209.828 Q2061.45 209.365 2063.53 209.365 Q2069.16 209.365 2071.94 212.282 Q2074.71 215.198 2074.71 221.124 Z" fill="#000000" fill-rule="nonzero" fill-opacity="1" /><path clip-path="url(#clip730)" d="M2103.67 214.967 Q2105.27 212.096 2107.49 210.731 Q2109.71 209.365 2112.72 209.365 Q2116.77 209.365 2118.97 212.212 Q2121.17 215.036 2121.17 220.268 L2121.17 235.916 L2116.89 235.916 L2116.89 220.407 Q2116.89 216.68 2115.57 214.874 Q2114.25 213.069 2111.54 213.069 Q2108.23 213.069 2106.31 215.268 Q2104.39 217.467 2104.39 221.263 L2104.39 235.916 L2100.11 235.916 L2100.11 220.407 Q2100.11 216.657 2098.79 214.874 Q2097.47 213.069 2094.71 213.069 Q2091.45 213.069 2089.53 215.291 Q2087.61 217.49 2087.61 221.263 L2087.61 235.916 L2083.32 235.916 L2083.32 209.99 L2087.61 209.99 L2087.61 214.018 Q2089.07 211.633 2091.1 210.499 Q2093.14 209.365 2095.94 209.365 Q2098.76 209.365 2100.73 210.8 Q2102.72 212.235 2103.67 214.967 Z" fill="#000000" fill-rule="nonzero" fill-opacity="1" /><path clip-path="url(#clip730)" d="M2133.79 232.027 L2133.79 245.777 L2129.5 245.777 L2129.5 209.99 L2133.79 209.99 L2133.79 213.925 Q2135.13 211.61 2137.17 210.499 Q2139.23 209.365 2142.07 209.365 Q2146.8 209.365 2149.74 213.115 Q2152.7 216.865 2152.7 222.976 Q2152.7 229.087 2149.74 232.837 Q2146.8 236.587 2142.07 236.587 Q2139.23 236.587 2137.17 235.476 Q2135.13 234.342 2133.79 232.027 M2148.28 222.976 Q2148.28 218.277 2146.33 215.615 Q2144.41 212.93 2141.03 212.93 Q2137.65 212.93 2135.71 215.615 Q2133.79 218.277 2133.79 222.976 Q2133.79 227.675 2135.71 230.36 Q2137.65 233.022 2141.03 233.022 Q2144.41 233.022 2146.33 230.36 Q2148.28 227.675 2148.28 222.976 Z" fill="#000000" fill-rule="nonzero" fill-opacity="1" /><path clip-path="url(#clip730)" d="M2159.76 199.897 L2164.02 199.897 L2164.02 235.916 L2159.76 235.916 L2159.76 199.897 Z" fill="#000000" fill-rule="nonzero" fill-opacity="1" /><path clip-path="url(#clip730)" d="M2195.11 221.888 L2195.11 223.971 L2175.52 223.971 Q2175.8 228.369 2178.16 230.684 Q2180.55 232.976 2184.78 232.976 Q2187.24 232.976 2189.53 232.374 Q2191.84 231.772 2194.11 230.569 L2194.11 234.596 Q2191.82 235.568 2189.41 236.078 Q2187 236.587 2184.53 236.587 Q2178.32 236.587 2174.69 232.976 Q2171.08 229.365 2171.08 223.207 Q2171.08 216.842 2174.5 213.115 Q2177.95 209.365 2183.79 209.365 Q2189.02 209.365 2192.05 212.745 Q2195.11 216.101 2195.11 221.888 M2190.85 220.638 Q2190.8 217.143 2188.88 215.059 Q2186.98 212.976 2183.83 212.976 Q2180.27 212.976 2178.12 214.99 Q2175.99 217.004 2175.66 220.661 L2190.85 220.638 Z" fill="#000000" fill-rule="nonzero" fill-opacity="1" /><path clip-path="url(#clip730)" d="M2218.62 210.754 L2218.62 214.782 Q2216.82 213.856 2214.87 213.393 Q2212.93 212.93 2210.85 212.93 Q2207.68 212.93 2206.08 213.902 Q2204.5 214.874 2204.5 216.819 Q2204.5 218.3 2205.64 219.157 Q2206.77 219.99 2210.2 220.754 L2211.66 221.078 Q2216.19 222.05 2218.09 223.832 Q2220.01 225.592 2220.01 228.763 Q2220.01 232.374 2217.14 234.481 Q2214.3 236.587 2209.3 236.587 Q2207.21 236.587 2204.94 236.17 Q2202.7 235.777 2200.2 234.967 L2200.2 230.569 Q2202.56 231.795 2204.85 232.42 Q2207.14 233.022 2209.39 233.022 Q2212.4 233.022 2214.02 232.004 Q2215.64 230.962 2215.64 229.087 Q2215.64 227.351 2214.46 226.425 Q2213.3 225.499 2209.34 224.643 L2207.86 224.295 Q2203.9 223.462 2202.14 221.749 Q2200.38 220.013 2200.38 217.004 Q2200.38 213.346 2202.98 211.356 Q2205.57 209.365 2210.34 209.365 Q2212.7 209.365 2214.78 209.712 Q2216.87 210.059 2218.62 210.754 Z" fill="#000000" fill-rule="nonzero" fill-opacity="1" /><polyline clip-path="url(#clip730)" style="stroke:#ff0000; stroke-linecap:round; stroke-linejoin:round; stroke-width:4; stroke-opacity:1; fill:none" points="1861.19,270.476 1999.88,270.476 "/>
<path clip-path="url(#clip730)" d="M2023.67 283.821 L2031.31 283.821 L2031.31 257.455 L2023 259.122 L2023 254.862 L2031.26 253.196 L2035.94 253.196 L2035.94 283.821 L2043.58 283.821 L2043.58 287.756 L2023.67 287.756 L2023.67 283.821 Z" fill="#000000" fill-rule="nonzero" fill-opacity="1" /><path clip-path="url(#clip730)" d="M2050.27 272.872 L2062.75 272.872 L2062.75 276.668 L2050.27 276.668 L2050.27 272.872 Z" fill="#000000" fill-rule="nonzero" fill-opacity="1" /><path clip-path="url(#clip730)" d="M2079.57 265.21 Q2076.06 265.21 2074.16 267.756 Q2072.17 270.418 2072.17 274.816 Q2072.17 279.469 2074.13 282.154 Q2076.13 284.816 2079.57 284.816 Q2082.98 284.816 2084.97 282.131 Q2086.96 279.446 2086.96 274.816 Q2086.96 270.58 2084.97 267.756 Q2083.14 265.21 2079.57 265.21 M2079.57 261.83 L2093.72 261.83 L2093.72 266.089 L2088.95 266.089 Q2091.47 269.7 2091.47 274.816 Q2091.47 281.182 2088.3 284.793 Q2085.13 288.427 2079.57 288.427 Q2074 288.427 2070.85 284.793 Q2067.68 281.182 2067.68 274.816 Q2067.68 268.404 2070.85 264.816 Q2073.46 261.83 2079.57 261.83 Z" fill="#000000" fill-rule="nonzero" fill-opacity="1" /><path clip-path="url(#clip730)" d="M2136.82 273.728 L2136.82 275.811 L2117.24 275.811 Q2117.51 280.209 2119.88 282.524 Q2122.26 284.816 2126.5 284.816 Q2128.95 284.816 2131.24 284.214 Q2133.56 283.612 2135.82 282.409 L2135.82 286.436 Q2133.53 287.408 2131.13 287.918 Q2128.72 288.427 2126.24 288.427 Q2120.04 288.427 2116.4 284.816 Q2112.79 281.205 2112.79 275.047 Q2112.79 268.682 2116.22 264.955 Q2119.67 261.205 2125.5 261.205 Q2130.73 261.205 2133.76 264.585 Q2136.82 267.941 2136.82 273.728 M2132.56 272.478 Q2132.51 268.983 2130.59 266.899 Q2128.69 264.816 2125.55 264.816 Q2121.98 264.816 2119.83 266.83 Q2117.7 268.844 2117.38 272.501 L2132.56 272.478 Z" fill="#000000" fill-rule="nonzero" fill-opacity="1" /><path clip-path="url(#clip730)" d="M2143.81 251.737 L2148.07 251.737 L2148.07 287.756 L2143.81 287.756 L2143.81 251.737 Z" fill="#000000" fill-rule="nonzero" fill-opacity="1" /><path clip-path="url(#clip730)" d="M2156.98 251.737 L2161.24 251.737 L2161.24 287.756 L2156.98 287.756 L2156.98 251.737 Z" fill="#000000" fill-rule="nonzero" fill-opacity="1" /><path clip-path="url(#clip730)" d="M2170.15 261.83 L2174.41 261.83 L2174.41 287.756 L2170.15 287.756 L2170.15 261.83 M2170.15 251.737 L2174.41 251.737 L2174.41 257.131 L2170.15 257.131 L2170.15 251.737 Z" fill="#000000" fill-rule="nonzero" fill-opacity="1" /><path clip-path="url(#clip730)" d="M2187.44 283.867 L2187.44 297.617 L2183.16 297.617 L2183.16 261.83 L2187.44 261.83 L2187.44 265.765 Q2188.79 263.45 2190.82 262.339 Q2192.88 261.205 2195.73 261.205 Q2200.45 261.205 2203.39 264.955 Q2206.36 268.705 2206.36 274.816 Q2206.36 280.927 2203.39 284.677 Q2200.45 288.427 2195.73 288.427 Q2192.88 288.427 2190.82 287.316 Q2188.79 286.182 2187.44 283.867 M2201.93 274.816 Q2201.93 270.117 2199.99 267.455 Q2198.07 264.77 2194.69 264.77 Q2191.31 264.77 2189.37 267.455 Q2187.44 270.117 2187.44 274.816 Q2187.44 279.515 2189.37 282.2 Q2191.31 284.862 2194.69 284.862 Q2198.07 284.862 2199.99 282.2 Q2201.93 279.515 2201.93 274.816 Z" fill="#000000" fill-rule="nonzero" fill-opacity="1" /><path clip-path="url(#clip730)" d="M2229.94 262.594 L2229.94 266.622 Q2228.14 265.696 2226.19 265.233 Q2224.25 264.77 2222.17 264.77 Q2218.99 264.77 2217.4 265.742 Q2215.82 266.714 2215.82 268.659 Q2215.82 270.14 2216.96 270.997 Q2218.09 271.83 2221.52 272.594 L2222.98 272.918 Q2227.51 273.89 2229.41 275.672 Q2231.33 277.432 2231.33 280.603 Q2231.33 284.214 2228.46 286.321 Q2225.62 288.427 2220.62 288.427 Q2218.53 288.427 2216.26 288.01 Q2214.02 287.617 2211.52 286.807 L2211.52 282.409 Q2213.88 283.635 2216.17 284.26 Q2218.46 284.862 2220.71 284.862 Q2223.72 284.862 2225.34 283.844 Q2226.96 282.802 2226.96 280.927 Q2226.96 279.191 2225.78 278.265 Q2224.62 277.339 2220.66 276.483 L2219.18 276.135 Q2215.22 275.302 2213.46 273.589 Q2211.7 271.853 2211.7 268.844 Q2211.7 265.186 2214.3 263.196 Q2216.89 261.205 2221.66 261.205 Q2224.02 261.205 2226.1 261.552 Q2228.18 261.899 2229.94 262.594 Z" fill="#000000" fill-rule="nonzero" fill-opacity="1" /><path clip-path="url(#clip730)" d="M2260.29 273.728 L2260.29 275.811 L2240.71 275.811 Q2240.99 280.209 2243.35 282.524 Q2245.73 284.816 2249.97 284.816 Q2252.42 284.816 2254.71 284.214 Q2257.03 283.612 2259.3 282.409 L2259.3 286.436 Q2257 287.408 2254.6 287.918 Q2252.19 288.427 2249.71 288.427 Q2243.51 288.427 2239.87 284.816 Q2236.26 281.205 2236.26 275.047 Q2236.26 268.682 2239.69 264.955 Q2243.14 261.205 2248.97 261.205 Q2254.2 261.205 2257.24 264.585 Q2260.29 267.941 2260.29 273.728 M2256.03 272.478 Q2255.99 268.983 2254.06 266.899 Q2252.17 264.816 2249.02 264.816 Q2245.45 264.816 2243.3 266.83 Q2241.17 268.844 2240.85 272.501 L2256.03 272.478 Z" fill="#000000" fill-rule="nonzero" fill-opacity="1" /></svg>
